<?xml version="1.0" encoding="UTF-8" standalone="no"?>
<svg
   xmlns:dc="http://purl.org/dc/elements/1.1/"
   xmlns:cc="http://creativecommons.org/ns#"
   xmlns:rdf="http://www.w3.org/1999/02/22-rdf-syntax-ns#"
   xmlns:svg="http://www.w3.org/2000/svg"
   xmlns="http://www.w3.org/2000/svg"
   xmlns:sodipodi="http://sodipodi.sourceforge.net/DTD/sodipodi-0.dtd"
   xmlns:inkscape="http://www.inkscape.org/namespaces/inkscape"
   width="1016.1031"
   height="274.96924"
   viewBox="0 0 268.84395 72.752279"
   version="1.1"
   id="svg8"
   inkscape:version="1.0.1 (c497b03c, 2020-09-10)"
   sodipodi:docname="graphicdiv.svg">
  <defs
     id="defs2">
    <inkscape:path-effect
       effect="spiro"
       id="path-effect846"
       is_visible="true"
       lpeversion="1" />
  </defs>
  <sodipodi:namedview
     id="base"
     pagecolor="#ffffff"
     bordercolor="#666666"
     borderopacity="1.0"
     inkscape:pageopacity="0.0"
     inkscape:pageshadow="2"
     inkscape:zoom="0.50443097"
     inkscape:cx="547.47293"
     inkscape:cy="342.46835"
     inkscape:document-units="mm"
     inkscape:current-layer="layer1"
     inkscape:document-rotation="0"
     showgrid="false"
     units="px"
     inkscape:window-width="1633"
     inkscape:window-height="997"
     inkscape:window-x="0"
     inkscape:window-y="25"
     inkscape:window-maximized="1"
     fit-margin-top="0"
     fit-margin-left="0"
     fit-margin-right="0"
     fit-margin-bottom="0" />
  <metadata
     id="metadata5">
    <rdf:RDF>
      <cc:Work
         rdf:about="">
        <dc:format>image/svg+xml</dc:format>
        <dc:type
           rdf:resource="http://purl.org/dc/dcmitype/StillImage" />
        <dc:title />
      </cc:Work>
    </rdf:RDF>
  </metadata>
  <g
     inkscape:label="Layer 1"
     inkscape:groupmode="layer"
     id="layer1"
     transform="translate(-11.498445,-50.057744)">
    <g
       id="g852"
       transform="matrix(1.0137474,0,0,1.085335,-0.70887314,-10.17566)"
       style="fill:#ffcc00;fill-opacity:1;stroke:none;stroke-width:0.953352">
      <path
         style="fill:#ffcc00;fill-opacity:1;stroke:none;stroke-width:0.25224099999999999px;stroke-linecap:butt;stroke-linejoin:miter;stroke-opacity:1"
         d="m 13.072,51.631299 c 4.021074,13.51945 11.938414,25.855771 22.554291,35.142735 10.576779,9.25276 23.964648,15.489936 37.973864,16.596146 14.009215,1.10621 28.557795,-3.14241 39.130345,-12.4 5.43668,-4.760496 9.72474,-10.675103 14.74995,-15.86808 2.51261,-2.596488 5.2253,-5.02408 8.27333,-6.964315 3.04802,-1.940234 6.44758,-3.386172 10.02138,-3.918044 5.5468,-0.825503 11.2807,0.606292 16.1896,3.317581 4.90891,2.71129 9.05365,6.641161 12.64899,10.944872 7.19069,8.607423 12.40493,18.851869 20.46614,26.649986 8.03293,7.77076 18.72737,12.73802 29.84704,13.86308 11.11967,1.12506 22.59233,-1.59937 32.01899,-7.60361 9.42666,-6.00424 16.74607,-15.249282 20.42771,-25.801929 3.68164,-10.552646 3.70158,-22.344345 0.0557,-32.909385"
         id="path844"
         inkscape:path-effect="#path-effect846"
         inkscape:original-d="m 13.072,51.631299 c 14.898036,6.585167 14.204222,23.214062 22.554291,35.142735 15.678293,22.397566 56.502958,9.346456 77.104209,4.196146 11.26726,-2.816815 0.91056,-22.733677 33.04466,-26.750439 4.12433,-0.515541 15.96661,46.468789 49.30473,40.912439 57.26223,-9.543709 52.29356,-48.694865 82.3494,-52.451844" />
      <path
         style="fill:#ffcc00;fill-opacity:1;stroke:none;stroke-width:0.25224099999999999px;stroke-linecap:butt;stroke-linejoin:miter;stroke-opacity:1"
         d="m 13.072,51.631299 c 88.11936,0.349944 176.23845,0.699623 264.3573,1.049037"
         id="path848" />
    </g>
  </g>
</svg>
